<svg width="63" height="41" viewBox="0 0 63 41" fill="none" xmlns="http://www.w3.org/2000/svg">
<path d="M56.886 0.59082H5.59543C5.38178 0.59082 5.16774 0.59082 4.95447 0.591953C4.77441 0.593463 4.59472 0.59535 4.41467 0.600257C4.02246 0.610827 3.62686 0.634231 3.23956 0.703688C2.85115 0.770234 2.47482 0.894278 2.12297 1.07173C1.41562 1.4315 0.840685 2.00644 0.480914 2.71379C0.303141 3.06577 0.179083 3.4424 0.112867 3.83114C0.0426556 4.21881 0.0196291 4.61404 0.00905959 5.00586C0.00445906 5.18576 0.0016907 5.36571 0.000754966 5.54566C0 5.75856 0 5.97222 0 6.18625V34.995C0 35.209 0 35.4223 0.000754966 35.6364C0.00188742 35.816 0.00415231 35.9961 0.00905959 36.1762C0.0196291 36.5672 0.0430331 36.9628 0.112867 37.3501C0.178947 37.7388 0.302878 38.1155 0.480536 38.4675C0.659155 38.819 0.892306 39.1401 1.17133 39.4187C1.44988 39.6979 1.77096 39.931 2.12259 40.1095C2.48006 40.2919 2.84622 40.4077 3.23994 40.4783C3.62686 40.5474 4.02246 40.5708 4.41467 40.5814C4.59472 40.5855 4.77441 40.5878 4.95447 40.5889C5.16774 40.5904 5.38178 40.5904 5.59543 40.5904H56.886C57.0992 40.5904 57.3133 40.5904 57.5265 40.5889C57.7062 40.5882 57.8859 40.5855 58.0667 40.5814C58.4582 40.5708 58.8538 40.5474 59.2418 40.4783C59.6303 40.4117 60.0067 40.2874 60.3584 40.1095C61.0654 39.7493 61.6402 39.1745 62.0005 38.4675C62.1828 38.11 62.2983 37.7438 62.3681 37.3501C62.4384 36.9628 62.461 36.5672 62.4716 36.1762C62.4765 35.9961 62.4791 35.816 62.4799 35.6364C62.4814 35.4223 62.4814 35.209 62.4814 34.995V6.18663C62.4814 5.9726 62.4814 5.75894 62.4799 5.54529C62.4791 5.36545 62.4764 5.18563 62.4716 5.00586C62.461 4.61404 62.4384 4.21881 62.3681 3.83114C62.3024 3.44233 62.1784 3.06566 62.0005 2.71379C61.6405 2.00657 61.0656 1.43168 60.3584 1.07173C60.0065 0.89446 59.6302 0.770547 59.2418 0.704065C58.8538 0.634231 58.4582 0.611204 58.0667 0.600635C57.8867 0.596063 57.7066 0.593294 57.5265 0.59233C57.3133 0.59082 57.0992 0.59082 56.886 0.59082Z" fill="#DADADA"/>
<path d="M56.8859 1.92383L57.5171 1.92496C57.6877 1.92609 57.8587 1.92798 58.0305 1.93251C58.3298 1.94081 58.6794 1.95705 59.0055 2.01556C59.2886 2.06652 59.5264 2.1439 59.7544 2.26017C60.2107 2.49215 60.5814 2.86323 60.8129 3.31976C60.9284 3.54625 61.0054 3.78256 61.0564 4.06831C61.1145 4.39068 61.1307 4.74136 61.1387 5.04222C61.1436 5.21208 61.1458 5.38195 61.1462 5.55559C61.1481 5.76585 61.1481 5.97573 61.1481 6.18637V34.9951C61.1481 35.2058 61.1481 35.4156 61.1466 35.6301C61.1458 35.7999 61.1436 35.9698 61.139 36.1397C61.1307 36.4401 61.1145 36.7908 61.0556 37.117C61.0128 37.3764 60.9307 37.6278 60.8121 37.8625C60.5801 38.3192 60.2089 38.6903 59.7522 38.9221C59.5257 39.0376 59.2886 39.115 59.0081 39.1656C58.6756 39.2248 58.3109 39.2411 58.0365 39.2486C57.864 39.2524 57.6922 39.255 57.516 39.2558C57.3065 39.2573 57.0958 39.2573 56.8859 39.2573H5.58711C5.37949 39.2573 5.17188 39.2573 4.96049 39.2558C4.7906 39.255 4.62073 39.2528 4.45089 39.249C4.17004 39.2414 3.80539 39.2248 3.47547 39.1659C3.21462 39.1225 2.96186 39.0397 2.72579 38.9206C2.49934 38.8055 2.29266 38.6552 2.11351 38.4751C1.93379 38.2957 1.7837 38.089 1.66883 37.8625C1.55021 37.6265 1.46799 37.3738 1.42498 37.1132C1.36609 36.7874 1.34948 36.4382 1.34193 36.14C1.33767 35.9696 1.33515 35.7991 1.33438 35.6285L1.33325 35.1276V6.05425L1.33401 5.55408C1.33479 5.38331 1.3373 5.21256 1.34156 5.04184C1.34986 4.74287 1.36609 4.3937 1.42536 4.06529C1.46846 3.80515 1.55067 3.55303 1.66921 3.3175C1.78397 3.09176 1.93345 2.88566 2.11464 2.70484C2.29423 2.52497 2.50113 2.37464 2.72767 2.25941C2.96317 2.1411 3.21513 2.05889 3.47509 2.01556C3.80161 1.95705 4.15154 1.94081 4.45126 1.93251C4.62189 1.92798 4.79289 1.92609 4.96237 1.92496L5.59541 1.92383H56.8859Z" fill="white"/>
<path d="M16.4235 14.093C16.9535 13.4305 17.3128 12.5408 17.2181 11.6318C16.4427 11.6703 15.4968 12.1433 14.9487 12.8066C14.4568 13.3743 14.0216 14.301 14.1348 15.1719C15.0053 15.2474 15.875 14.737 16.4235 14.093Z" fill="black"/>
<path d="M17.2082 15.342C15.9437 15.2665 14.8694 16.0592 14.2658 16.0592C13.6618 16.0592 12.7373 15.3797 11.7374 15.3982C10.4362 15.4171 9.229 16.1532 8.5684 17.3234C7.21022 19.6638 8.20979 23.1366 9.53098 25.0429C10.1723 25.9866 10.9454 27.0247 11.9639 26.9873C12.9264 26.9496 13.3036 26.3645 14.473 26.3645C15.6421 26.3645 15.9818 26.9873 17.0006 26.9685C18.0568 26.9496 18.7174 26.0248 19.3588 25.081C20.0948 24.0052 20.3957 22.9671 20.4146 22.9105C20.3957 22.8916 18.3777 22.1174 18.3588 19.7959C18.3399 17.8519 19.9435 16.927 20.019 16.87C19.1134 15.5307 17.6986 15.3797 17.2079 15.342" fill="black"/>
<path d="M29.8109 12.7119C32.5582 12.7119 34.4716 14.6057 34.4716 17.3629C34.4716 20.1298 32.5189 22.0335 29.7422 22.0335H26.7004V26.8713H24.5027V12.7119H29.8109ZM26.7004 20.1887H29.222C31.1358 20.1887 32.2245 19.1586 32.2245 17.3727C32.2245 15.5872 31.1354 14.5665 29.2318 14.5665H26.7004V20.1887Z" fill="black"/>
<path d="M35.0167 23.9367C35.0167 22.1214 36.4002 21.0814 38.9512 20.9244L41.6887 20.7576V19.9724C41.6887 18.8248 40.9334 18.1967 39.5892 18.1967C38.4801 18.1967 37.6753 18.7656 37.5092 19.6387H35.5267C35.586 17.8041 37.3126 16.4697 39.6481 16.4697C42.1598 16.4697 43.7985 17.7845 43.7985 19.8256V26.8705H41.7676V25.173H41.7186C41.1395 26.2816 39.8636 26.9781 38.4801 26.9781C36.4395 26.9781 35.0167 25.7619 35.0167 23.9367ZM41.6887 23.0243V22.2294L39.2457 22.3864C37.8716 22.4747 37.1559 22.9847 37.1559 23.8775C37.1559 24.7411 37.9014 25.3006 39.069 25.3006C40.5601 25.3006 41.6887 24.3486 41.6887 23.0243Z" fill="black"/>
<path d="M45.6659 30.6581V28.961C45.8033 28.9802 46.1366 28.9999 46.3132 28.9999C47.2845 28.9999 47.8341 28.5884 48.1678 27.5281L48.3641 26.9003L44.6451 16.5977H46.941L49.5317 24.9574H49.5807L52.171 16.5977H54.4084L50.552 27.4201C49.6687 29.9028 48.6582 30.7174 46.5193 30.7174C46.3525 30.7174 45.8127 30.6978 45.6659 30.6581Z" fill="black"/>
</svg>
