<svg xmlns="http://www.w3.org/2000/svg" width="9" height="9" viewBox="0 0 9 9" fill="none">
  <g clip-path="url(#clip0_6_2044)">
    <path d="M4.5 9C6.98528 9 9 6.98528 9 4.5C9 2.01472 6.98528 0 4.5 0C2.01472 0 0 2.01472 0 4.5C0 6.98528 2.01472 9 4.5 9Z" fill="#D90707"/>
    <path d="M3.92737 2.17383V3.22683L4.23112 5.42058H4.77112L5.07487 3.22683V2.17383H3.92737ZM4.50112 7.06083C4.81837 7.06083 5.07487 6.83808 5.07487 6.48708C5.07487 6.14283 4.81837 5.91333 4.50112 5.91333C4.17712 5.91333 3.92737 6.14283 3.92737 6.48708C3.92737 6.83808 4.17712 7.06083 4.50112 7.06083Z" fill="white"/>
  </g>
  <defs>
    <clipPath id="clip0_6_2044">
      <rect width="9" height="9" fill="white"/>
    </clipPath>
  </defs>
</svg>