<svg width="64" height="41" viewBox="0 0 64 41" fill="none" xmlns="http://www.w3.org/2000/svg">
<path opacity="0.07" d="M58.7851 0.59082H5.45178C2.61845 0.59082 0.451782 2.75749 0.451782 5.59082V35.5908C0.451782 38.4242 2.78512 40.5908 5.45178 40.5908H58.7851C61.6184 40.5908 63.7851 38.4242 63.7851 35.5908V5.59082C63.7851 2.75749 61.4518 0.59082 58.7851 0.59082Z" fill="black"/>
<path d="M58.7851 2.25781C60.6184 2.25781 62.1184 3.75781 62.1184 5.59115V35.5911C62.1184 37.4245 60.6184 38.9245 58.7851 38.9245H5.45174C3.61841 38.9245 2.11841 37.4245 2.11841 35.5911V5.59115C2.11841 3.75781 3.61841 2.25781 5.45174 2.25781H58.7851Z" fill="white"/>
<path d="M30.6068 20.5507V25.884H28.9102V12.7174H33.3952C33.9325 12.7083 34.4664 12.8055 34.9661 13.0034C35.4658 13.2014 35.9214 13.4961 36.3068 13.8707C36.6719 14.2114 36.9662 14.6206 37.173 15.0751C37.3798 15.5296 37.495 16.0204 37.5121 16.5194C37.5291 17.0184 37.4476 17.5159 37.2723 17.9834C37.0969 18.4509 36.8311 18.8793 36.4902 19.244L36.3068 19.4374C35.5235 20.1824 34.4768 20.5874 33.3952 20.5607L30.6068 20.5507ZM30.6068 14.3307V18.9774H33.4368C34.0652 18.9974 34.6718 18.7524 35.1118 18.304C35.4266 17.976 35.6379 17.5627 35.7195 17.1154C35.8012 16.6682 35.7496 16.2069 35.5711 15.7888C35.3926 15.3707 35.0951 15.0143 34.7156 14.7639C34.3361 14.5136 33.8914 14.3803 33.4368 14.3807L30.6068 14.3307ZM41.4135 16.5774C42.4968 16.5274 43.5568 16.8907 44.3768 17.599C45.1185 18.3157 45.5135 19.3157 45.4602 20.3474V25.904H43.8452V24.6274H43.7635C43.4739 25.1062 43.0643 25.5012 42.5753 25.7733C42.0863 26.0455 41.5347 26.1853 40.9752 26.179C40.0617 26.2086 39.1708 25.8912 38.4818 25.2907C38.1554 25.0244 37.8938 24.6874 37.7168 24.3051C37.5398 23.9228 37.452 23.5053 37.4602 23.084C37.4409 22.6584 37.5236 22.2343 37.7013 21.847C37.879 21.4597 38.1466 21.1204 38.4818 20.8574C39.3042 20.266 40.2995 19.9641 41.3118 19.999C42.1735 19.9657 43.0285 20.154 43.7952 20.5507V20.204C43.8008 19.9174 43.7411 19.6333 43.6207 19.3731C43.5003 19.1129 43.3223 18.8836 43.1002 18.7024C42.654 18.2968 42.0696 18.0774 41.4668 18.089C41.029 18.0849 40.5974 18.1925 40.2128 18.4016C39.8281 18.6107 39.5031 18.9144 39.2685 19.284L37.7768 18.344C38.1819 17.7637 38.7287 17.2967 39.3653 16.9875C40.0018 16.6782 40.7069 16.5371 41.4135 16.5774ZM39.2685 23.124C39.2645 23.3399 39.3136 23.5534 39.4116 23.7458C39.5095 23.9383 39.6533 24.1036 39.8302 24.2274C40.2018 24.5207 40.6635 24.6757 41.1385 24.6657C41.8535 24.664 42.5385 24.3824 43.0485 23.879C43.5568 23.4024 43.8452 22.7374 43.8452 22.0407C43.2035 21.5846 42.4239 21.3643 41.6385 21.4174C41.0286 21.3934 40.4271 21.5651 39.9218 21.9074C39.7217 22.0413 39.5575 22.2222 39.4436 22.4343C39.3297 22.6464 39.2696 22.8833 39.2685 23.124ZM54.7452 16.874L49.0952 29.8574H47.3485L49.4835 25.3107L45.7768 16.874H47.6152L50.3018 23.349L52.9168 16.874H54.7452Z" fill="#5F6368"/>
<path d="M23.7618 19.3976C23.7618 18.8843 23.7218 18.3709 23.6401 17.8643H16.4901V20.7759H20.5751C20.4919 21.2387 20.3162 21.6799 20.0585 22.0731C19.8007 22.4663 19.4663 22.8034 19.0751 23.0643V24.9543H21.5151C22.257 24.2364 22.8403 23.3711 23.2272 22.414C23.6142 21.4569 23.7963 20.4294 23.7618 19.3976Z" fill="#4285F4"/>
<path d="M16.5002 26.7924C18.344 26.843 20.1379 26.1892 21.5168 24.9641L19.0735 23.0641C18.4864 23.4405 17.8212 23.6781 17.1285 23.7587C16.4358 23.8394 15.7338 23.7611 15.076 23.5297C14.4181 23.2983 13.8216 22.9199 13.332 22.4234C12.8423 21.9268 12.4723 21.3251 12.2502 20.6641H9.74683V22.6141C10.3732 23.8691 11.3369 24.9249 12.5298 25.6629C13.7226 26.4009 15.0975 26.792 16.5002 26.7924Z" fill="#34A853"/>
<path d="M12.2501 20.6737C11.9331 19.7359 11.9331 18.7199 12.2501 17.782V15.832H9.74675C9.21306 16.8845 8.93494 18.0479 8.93494 19.2279C8.93494 20.4079 9.21306 21.5713 9.74675 22.6237L12.2501 20.6737Z" fill="#FBBC04"/>
<path d="M16.5002 14.6575C17.5785 14.6378 18.6209 15.0452 19.4002 15.7908L21.5668 13.6358C20.1853 12.3392 18.3529 11.6319 16.4585 11.6641C15.0641 11.6711 13.6989 12.0641 12.5142 12.7996C11.3295 13.5351 10.3717 14.5842 9.74683 15.8308L12.2502 17.7825C12.5429 16.8826 13.1103 16.0972 13.8727 15.5366C14.635 14.976 15.554 14.6686 16.5002 14.6575Z" fill="#EA4335"/>
</svg>
