<svg width="65" height="41" viewBox="0 0 65 41" fill="none" xmlns="http://www.w3.org/2000/svg">
<path opacity="0.07" d="M59.0888 0.59082H5.75549C2.92216 0.59082 0.755493 2.75749 0.755493 5.59082V35.5908C0.755493 38.4242 3.08883 40.5908 5.75549 40.5908H59.0888C61.9222 40.5908 64.0888 38.4242 64.0888 35.5908V5.59082C64.0888 2.75749 61.7555 0.59082 59.0888 0.59082Z" fill="black"/>
<path d="M59.0888 2.25781C60.9221 2.25781 62.4221 3.75781 62.4221 5.59115V35.5911C62.4221 37.4245 60.9221 38.9245 59.0888 38.9245H5.75545C3.92212 38.9245 2.42212 37.4245 2.42212 35.5911V5.59115C2.42212 3.75781 3.92212 2.25781 5.75545 2.25781H59.0888Z" fill="white"/>
<path d="M25.7555 32.2572C32.1989 32.2572 37.4222 27.0338 37.4222 20.5905C37.4222 14.1472 32.1989 8.92383 25.7555 8.92383C19.3122 8.92383 14.0889 14.1472 14.0889 20.5905C14.0889 27.0338 19.3122 32.2572 25.7555 32.2572Z" fill="#D90707"/>
<path d="M39.0888 32.2572C45.5321 32.2572 50.7555 27.0338 50.7555 20.5905C50.7555 14.1472 45.5321 8.92383 39.0888 8.92383C32.6455 8.92383 27.4221 14.1472 27.4221 20.5905C27.4221 27.0338 32.6455 32.2572 39.0888 32.2572Z" fill="#F79E1B"/>
<path d="M37.4221 20.5908C37.4221 16.5908 35.4221 13.0908 32.4221 11.0908C29.4221 13.2575 27.4221 16.7575 27.4221 20.5908C27.4221 24.4242 29.4221 28.0908 32.4221 30.0908C35.4221 28.0908 37.4221 24.5908 37.4221 20.5908Z" fill="#FF5F00"/>
</svg>
