<svg width="64" height="41" viewBox="0 0 64 41" fill="none" xmlns="http://www.w3.org/2000/svg">
<path opacity="0.07" d="M58.6962 0.59082H5.36292C2.52958 0.59082 0.362915 2.75749 0.362915 5.59082V35.5908C0.362915 38.4242 2.69625 40.5908 5.36292 40.5908H58.6962C61.5296 40.5908 63.6962 38.4242 63.6962 35.5908V5.59082C63.6962 2.75749 61.3629 0.59082 58.6962 0.59082Z" fill="black"/>
<path d="M58.6961 2.25781C60.5294 2.25781 62.0294 3.75781 62.0294 5.59115V35.5911C62.0294 37.4245 60.5294 38.9245 58.6961 38.9245H5.36275C3.52942 38.9245 2.02942 37.4245 2.02942 35.5911V5.59115C2.02942 3.75781 3.52942 2.25781 5.36275 2.25781H58.6961Z" fill="#5A31F4"/>
<path d="M35.9996 16.7788C35.9996 19.5588 34.0379 21.5421 31.2979 21.5421H28.7163C28.6736 21.5427 28.6321 21.5556 28.5966 21.5793C28.5611 21.6029 28.5332 21.6363 28.5163 21.6754C28.5053 21.7013 28.4997 21.729 28.4996 21.7571V25.4104C28.4996 25.4388 28.494 25.4669 28.4831 25.4931C28.4722 25.5193 28.4562 25.5431 28.436 25.563C28.4159 25.583 28.392 25.5988 28.3657 25.6095C28.3394 25.6202 28.3113 25.6256 28.2829 25.6254H26.4763C26.4188 25.6254 26.3637 25.6026 26.3231 25.562C26.2824 25.5213 26.2596 25.4662 26.2596 25.4088V12.2338C26.2589 12.1908 26.2713 12.1487 26.2951 12.113C26.3189 12.0773 26.353 12.0496 26.3929 12.0338C26.4193 12.0227 26.4476 12.017 26.4763 12.0171H31.3096C34.0379 12.0171 35.9996 13.9988 35.9996 16.7788ZM33.7463 16.7788C33.7463 15.1821 32.6496 14.0154 31.1629 14.0154H28.7163C28.6878 14.0154 28.6596 14.021 28.6333 14.0319C28.6071 14.0428 28.5832 14.0588 28.5631 14.0789C28.5429 14.099 28.527 14.1229 28.5161 14.1492C28.5052 14.1755 28.4996 14.2036 28.4996 14.2321V19.3154C28.4993 19.3439 28.5047 19.3722 28.5156 19.3985C28.5265 19.4249 28.5426 19.4488 28.5629 19.4688C28.583 19.4889 28.6069 19.5049 28.6332 19.5158C28.6596 19.5267 28.6878 19.5322 28.7163 19.5321H31.1629C32.6496 19.5404 33.7463 18.3738 33.7463 16.7788ZM36.5363 23.0971C36.5172 22.6701 36.606 22.2452 36.7945 21.8616C36.983 21.478 37.265 21.148 37.6146 20.9021C38.3196 20.3754 39.4213 20.1021 41.0396 20.0454L42.7613 19.9854V19.4804C42.7613 18.4688 42.0779 18.0421 40.9813 18.0421C39.8846 18.0421 39.1896 18.4271 39.0313 19.0588C39.0178 19.1031 38.9901 19.1418 38.9524 19.1689C38.9148 19.196 38.8693 19.21 38.8229 19.2088H37.1196C37.0727 19.2094 37.0269 19.1947 36.989 19.1671C36.9512 19.1394 36.9233 19.1003 36.9096 19.0554C36.9006 19.0257 36.8983 18.9944 36.9029 18.9638C37.1563 17.4671 38.4096 16.3304 41.0596 16.3304C43.8796 16.3304 44.8979 17.6354 44.8979 20.1238V25.4104C44.8977 25.439 44.8918 25.4673 44.8806 25.4936C44.8694 25.5199 44.8531 25.5437 44.8327 25.5637C44.8122 25.5837 44.788 25.5995 44.7615 25.6101C44.7349 25.6206 44.7065 25.6259 44.6779 25.6254H42.9613C42.9038 25.6254 42.8487 25.6026 42.808 25.562C42.7674 25.5213 42.7446 25.4662 42.7446 25.4088V25.0154C42.7451 24.9828 42.7357 24.9508 42.7175 24.9237C42.6993 24.8966 42.6733 24.8756 42.6429 24.8638C42.6128 24.8519 42.58 24.8491 42.5483 24.8556C42.5166 24.8621 42.4876 24.8777 42.4646 24.9004C41.9479 25.4571 41.1179 25.8588 39.7863 25.8588C37.8279 25.8588 36.5363 24.8471 36.5363 23.0971ZM42.7613 21.9521V21.5421L40.5296 21.6588C39.3546 21.7188 38.6713 22.2021 38.6713 23.0188C38.6713 23.7588 39.2979 24.1688 40.3946 24.1688C41.8829 24.1688 42.7613 23.3688 42.7613 21.9521ZM46.6213 29.6188V28.0871C46.6217 28.055 46.6292 28.0234 46.6433 27.9946C46.6575 27.9657 46.6778 27.9404 46.7029 27.9204C46.7278 27.9003 46.7569 27.8858 46.7879 27.878C46.819 27.8702 46.8515 27.8694 46.8829 27.8754C47.1463 27.9238 47.4129 27.9488 47.6813 27.9488C48.1409 27.9739 48.5956 27.8436 48.972 27.5787C49.3485 27.3138 49.6247 26.9299 49.7563 26.4888L49.8679 26.1371C49.8846 26.0896 49.8846 26.0379 49.8679 25.9904L46.2929 16.8721C46.2722 16.822 46.271 16.7661 46.2895 16.7152C46.308 16.6643 46.3449 16.6221 46.3929 16.5971C46.4248 16.5803 46.4603 16.5717 46.4963 16.5721H48.2296C48.2741 16.5722 48.3175 16.5858 48.3541 16.6111C48.3907 16.6364 48.4188 16.6722 48.4346 16.7138L50.8613 23.1454C50.8763 23.1886 50.9044 23.226 50.9418 23.2523C50.9792 23.2786 51.0239 23.2925 51.0696 23.2921C51.1152 23.292 51.1597 23.2779 51.1969 23.2517C51.2342 23.2254 51.2625 23.1883 51.2779 23.1454L53.3863 16.7321C53.4005 16.6879 53.4287 16.6494 53.4665 16.6224C53.5043 16.5954 53.5498 16.5813 53.5963 16.5821H55.3896C55.4434 16.5824 55.4953 16.6021 55.5357 16.6377C55.5761 16.6732 55.6024 16.7221 55.6096 16.7754C55.6136 16.811 55.6091 16.847 55.5963 16.8804L51.7713 27.0071C50.8913 29.3621 49.3829 29.9621 47.7213 29.9621C47.4059 29.9708 47.091 29.9337 46.7863 29.8521C46.7352 29.8395 46.6903 29.8091 46.6597 29.7663C46.6291 29.7235 46.6166 29.6711 46.6213 29.6188ZM14.6463 11.2571C12.3721 11.2401 10.177 12.0906 8.50792 13.6354C8.4369 13.7 8.39257 13.7888 8.38363 13.8844C8.37469 13.98 8.40178 14.0754 8.45959 14.1521L9.48959 15.5504C9.52296 15.5976 9.56631 15.6368 9.61656 15.6653C9.6668 15.6938 9.72271 15.7109 9.78031 15.7153C9.8379 15.7198 9.89577 15.7115 9.9498 15.6911C10.0038 15.6706 10.0527 15.6385 10.0929 15.5971C10.6928 15.0014 11.4052 14.5311 12.1887 14.2135C12.9721 13.8958 13.8109 13.7373 14.6563 13.7471C18.1896 13.7471 20.0346 16.3871 20.0346 18.9971C20.0346 21.8304 18.0963 23.8271 15.3096 23.8654C13.1563 23.8654 11.5329 22.4488 11.5329 20.5754C11.5348 20.1017 11.6424 19.6344 11.848 19.2076C12.0536 18.7809 12.352 18.4054 12.7213 18.1088C12.7999 18.0443 12.8498 17.9513 12.8601 17.8501C12.8704 17.7489 12.8403 17.6478 12.7763 17.5688L11.6929 16.2104C11.6602 16.1687 11.6194 16.1339 11.5729 16.1084C11.5265 16.0828 11.4753 16.0669 11.4225 16.0616C11.3697 16.0563 11.3164 16.0617 11.2658 16.0776C11.2152 16.0934 11.1683 16.1193 11.1279 16.1538C10.4644 16.686 9.92806 17.3596 9.55792 18.1254C9.18911 18.8896 8.99714 19.7269 8.99626 20.5754C8.99626 23.8004 11.7546 26.3288 15.2879 26.3488H15.3379C19.5329 26.2954 22.5663 23.2088 22.5663 18.9904C22.5663 15.2454 19.7879 11.2571 14.6463 11.2571Z" fill="white"/>
</svg>
