<svg width="64" height="41" viewBox="0 0 64 41" fill="none" xmlns="http://www.w3.org/2000/svg">
<path opacity="0.07" d="M58.3925 0.59082H5.0592C2.22587 0.59082 0.0592041 2.75749 0.0592041 5.59082V35.5908C0.0592041 38.4242 2.39254 40.5908 5.0592 40.5908H58.3925C61.2259 40.5908 63.3925 38.4242 63.3925 35.5908V5.59082C63.3925 2.75749 61.0592 0.59082 58.3925 0.59082Z" fill="black"/>
<path d="M58.3925 2.25781C60.2258 2.25781 61.7258 3.75781 61.7258 5.59115V35.5911C61.7258 37.4245 60.2258 38.9245 58.3925 38.9245H5.05916C3.22583 38.9245 1.72583 37.4245 1.72583 35.5911V5.59115C1.72583 3.75781 3.22583 2.25781 5.05916 2.25781H58.3925Z" fill="white"/>
<path d="M39.8926 14.4238C40.2259 12.7572 39.8926 11.5905 38.8926 10.5905C37.8926 9.42383 36.0592 8.92383 33.7259 8.92383H26.8926C26.3926 8.92383 26.0592 9.25716 25.8926 9.75716L23.3926 26.5905C23.3926 26.9238 23.5592 27.2572 23.8926 27.2572H28.3926L29.0592 21.5905L32.0592 17.9238L39.8926 14.4238Z" fill="#003087"/>
<path d="M39.8925 14.4238L39.5592 14.7572C38.7258 19.4238 35.8925 21.0905 31.8925 21.0905H30.0592C29.5592 21.0905 29.2258 21.4238 29.0592 21.9238L28.0592 28.4238L27.7258 30.0905C27.7258 30.4238 27.8925 30.7572 28.2258 30.7572H31.7258C32.2258 30.7572 32.5592 30.4238 32.5592 30.0905V29.9238L33.2258 25.9238V25.7572C33.2258 25.4238 33.7258 25.0905 34.0592 25.0905H34.5592C38.0592 25.0905 40.7258 23.7572 41.3925 19.7572C41.7258 18.0905 41.5592 16.7572 40.7258 15.7572C40.5592 14.9238 40.2258 14.5905 39.8925 14.4238Z" fill="#3086C8"/>
<path d="M38.8925 14.0908C38.7259 13.9242 38.5592 13.9242 38.3925 13.9242C38.2259 13.9242 38.0592 13.9242 37.8925 13.7575C37.3925 13.5908 36.7259 13.5908 36.0592 13.5908H31.0592C30.8925 13.5908 30.7259 13.5908 30.7259 13.7575C30.3925 13.9242 30.2259 14.0908 30.2259 14.4242L29.0592 21.7575V21.9242C29.0592 21.4242 29.5592 21.0908 30.0592 21.0908H32.2259C36.3925 21.0908 39.0592 19.4242 39.8925 14.7575V14.4242C39.7259 14.2575 39.3925 14.0908 39.0592 14.0908H38.8925Z" fill="#012169"/>
</svg>
