<svg width="64" height="41" viewBox="0 0 64 41" fill="none" xmlns="http://www.w3.org/2000/svg">
<path opacity="0.07" d="M58.9998 0.59082H5.6665C2.83317 0.59082 0.666504 2.75749 0.666504 5.59082V35.5908C0.666504 38.4242 2.99984 40.5908 5.6665 40.5908H58.9998C61.8332 40.5908 63.9998 38.4242 63.9998 35.5908V5.59082C63.9998 2.75749 61.6665 0.59082 58.9998 0.59082Z" fill="black"/>
<path d="M58.9999 2.25781C60.8333 2.25781 62.3333 3.75781 62.3333 5.59115V35.5911C62.3333 37.4245 60.8333 38.9245 58.9999 38.9245H5.66659C3.83325 38.9245 2.33325 37.4245 2.33325 35.5911V5.59115C2.33325 3.75781 3.83325 2.25781 5.66659 2.25781H58.9999Z" fill="white"/>
<path d="M47.8331 17.4238H47.3331C46.6664 19.0905 46.1664 19.9238 45.6664 22.4238H48.8331C48.3331 19.9238 48.3331 18.7572 47.8331 17.4238ZM52.6664 27.2572H49.8331C49.6664 27.2572 49.6664 27.2572 49.4998 27.0905L49.1664 25.5905L48.9998 25.2572H44.9998C44.8331 25.2572 44.6664 25.2572 44.6664 25.5905L44.1664 27.0905C44.1664 27.2572 43.9998 27.2572 43.9998 27.2572H40.4998L40.8331 26.4238L45.6664 15.0905C45.6664 14.2572 46.1664 13.9238 46.9998 13.9238H49.4998C49.6664 13.9238 49.8331 13.9238 49.8331 14.2572L52.1664 25.0905C52.3331 25.7572 52.4998 26.2572 52.4998 26.9238C52.6664 27.0905 52.6664 27.0905 52.6664 27.2572ZM30.3331 26.7572L30.9998 23.7572C31.1664 23.7572 31.3331 23.9238 31.3331 23.9238C32.4998 24.4238 33.6664 24.7572 34.8331 24.5905C35.1664 24.5905 35.6664 24.4238 35.9998 24.2572C36.8331 23.9238 36.8331 23.0905 36.1664 22.4238C35.8331 22.0905 35.3331 21.9238 34.8331 21.5905C34.1664 21.2572 33.4998 20.9238 32.9998 20.4238C30.9998 18.7572 31.6664 16.4238 32.8331 15.2572C33.8331 14.5905 34.3331 13.9238 35.6664 13.9238C37.6664 13.9238 39.8331 13.9238 40.8331 14.2572H40.9998C40.8331 15.2572 40.6664 16.0905 40.3331 17.0905C39.4998 16.7572 38.6664 16.4238 37.8331 16.4238C37.3331 16.4238 36.8331 16.4238 36.3331 16.5905C35.9998 16.5905 35.8331 16.7572 35.6664 16.9238C35.3331 17.2572 35.3331 17.7572 35.6664 18.0905L36.4998 18.7572C37.1664 19.0905 37.8331 19.4238 38.3331 19.7572C39.1664 20.2572 39.9998 21.0905 40.1664 22.0905C40.4998 23.5905 39.9998 24.9238 38.6664 25.9238C37.8331 26.5905 37.4998 26.9238 36.3331 26.9238C33.9998 26.9238 32.1664 27.0905 30.6664 26.5905C30.4998 26.9238 30.4998 26.9238 30.3331 26.7572ZM24.4998 27.2572C24.6664 26.0905 24.6664 26.0905 24.8331 25.5905C25.6664 21.9238 26.4998 18.0905 27.1664 14.4238C27.3331 14.0905 27.3331 13.9238 27.6664 13.9238H30.6664C30.3331 15.9238 29.9998 17.4238 29.4998 19.2572C28.9998 21.7572 28.4998 24.2572 27.8331 26.7572C27.8331 27.0905 27.6664 27.0905 27.3331 27.0905M8.99976 14.2572C8.99976 14.0905 9.33309 13.9238 9.49976 13.9238H15.1664C15.9998 13.9238 16.6664 14.4238 16.8331 15.2572L18.3331 22.5905C18.3331 22.7572 18.3331 22.7572 18.4998 22.9238C18.4998 22.7572 18.6664 22.7572 18.6664 22.7572L22.1664 14.2572C21.9998 14.0905 22.1664 13.9238 22.3331 13.9238H25.8331C25.8331 14.0905 25.8331 14.0905 25.6664 14.2572L20.4998 26.4238C20.3331 26.7572 20.3331 26.9238 20.1664 27.0905C19.9998 27.2572 19.6664 27.0905 19.3331 27.0905H16.8331C16.6664 27.0905 16.4998 27.0905 16.4998 26.7572L13.8331 16.4238C13.4998 16.0905 12.9998 15.5905 12.3331 15.4238C11.3331 14.9238 9.49976 14.5905 9.16642 14.5905L8.99976 14.2572Z" fill="#142688"/>
</svg>
