<svg width="17" height="19" viewBox="0 0 17 19"  xmlns="http://www.w3.org/2000/svg">
<path d="M3.70005 1.5L1.30005 4.7V15.9C1.30005 16.3243 1.46862 16.7313 1.76868 17.0314C2.06874 17.3314 2.4757 17.5 2.90005 17.5H14.1C14.5244 17.5 14.9314 17.3314 15.2314 17.0314C15.5315 16.7313 15.7 16.3243 15.7 15.9V4.7L13.3 1.5H3.70005Z"   stroke-width="1.5" stroke-linecap="round" stroke-linejoin="round"/>
<path d="M1.30005 4.69995H15.7"   stroke-width="1.5" stroke-linecap="round" stroke-linejoin="round"/>
<path d="M11.7 7.8999C11.7 8.7486 11.3629 9.5625 10.7628 10.1626C10.1627 10.7628 9.3487 11.0999 8.5 11.0999C7.6514 11.0999 6.8374 10.7628 6.23731 10.1626C5.63719 9.5625 5.30005 8.7486 5.30005 7.8999"   stroke-width="1.5" stroke-linecap="round" stroke-linejoin="round"/>
</svg>
