<svg width="104" height="16" viewBox="0 0 104 16"  xmlns="http://www.w3.org/2000/svg">
<path d="M-7.70213e-10 3.26997L0 0.212928L13.1635 0.212928L13.1635 3.26997L8.44106 3.26997L8.44106 15.7871L4.73003 15.7871L4.73003 3.26997L-7.70213e-10 3.26997ZM15.0019 15.7871L15.0019 0.212928L21.4354 0.212928C22.6014 0.212928 23.6078 0.423323 24.4544 0.844107C25.3061 1.25982 25.9626 1.85805 26.424 2.63879C26.8853 3.41446 27.116 4.3346 27.116 5.39925C27.116 6.47909 26.8803 7.3967 26.4088 8.15208C25.9373 8.9024 25.2681 9.4753 24.4012 9.87072C23.5342 10.2611 22.5076 10.4563 21.3213 10.4563L17.2529 10.4563L17.2529 7.49051L20.6217 7.49051C21.1895 7.49051 21.6635 7.41698 22.0438 7.26997C22.4291 7.11786 22.7206 6.88973 22.9183 6.58555C23.116 6.27631 23.2148 5.88085 23.2148 5.39925C23.2148 4.91762 23.116 4.51964 22.9183 4.20533C22.7206 3.88593 22.4291 3.64765 22.0438 3.49051C21.6585 3.32828 21.1844 3.24716 20.6217 3.24716L18.7662 3.24716L18.7662 15.7871L15.0019 15.7871ZM23.77 8.66921L27.6483 15.7871L23.5418 15.7871L19.7396 8.66921L23.77 8.66921ZM38.6027 0.212928L42.3593 0.212928L42.3593 10.2586C42.3593 11.4195 42.0832 12.4309 41.5306 13.2928C40.9777 14.1496 40.2071 14.8137 39.2188 15.2852C38.2302 15.7516 37.0819 15.9848 35.7737 15.9848C34.4505 15.9848 33.2948 15.7516 32.3061 15.2852C31.3175 14.8137 30.5495 14.1496 30.0019 13.2928C29.4544 12.4309 29.1806 11.4195 29.1806 10.2586L29.1806 0.212928L32.945 0.212928L32.945 9.93156C32.945 10.469 33.0615 10.948 33.2948 11.3688C33.5329 11.7896 33.8652 12.1191 34.2909 12.3574C34.7169 12.5957 35.2111 12.7149 35.7737 12.7149C36.3366 12.7149 36.8282 12.5957 37.249 12.3574C37.675 12.1191 38.007 11.7896 38.2454 11.3688C38.4836 10.948 38.6027 10.469 38.6027 9.93156L38.6027 0.212928ZM53.1369 4.88213C53.0863 4.32447 52.8605 3.89099 52.4601 3.58175C52.0646 3.26744 51.4994 3.11027 50.7645 3.11027C50.2778 3.11027 49.8722 3.17364 49.5477 3.30038C49.2233 3.42711 48.9799 3.60203 48.8177 3.8251C48.6555 4.0431 48.5717 4.29404 48.5666 4.57794C48.5565 4.81117 48.6019 5.01649 48.7035 5.19393C48.8099 5.37135 48.9621 5.52852 49.1597 5.66541C49.3625 5.79721 49.6058 5.91382 49.8897 6.01521C50.1736 6.11661 50.4932 6.20531 50.8478 6.28137L52.1862 6.58555C52.9568 6.75284 53.6363 6.97594 54.2245 7.25475C54.8176 7.53359 55.3144 7.86565 55.7148 8.25095C56.1203 8.63624 56.4273 9.07985 56.6349 9.58176C56.8429 10.0837 56.9493 10.6464 56.9545 11.27C56.9493 12.2535 56.7008 13.0976 56.2092 13.8023C55.7174 14.507 55.01 15.0469 54.0876 15.4221C53.17 15.7972 52.0623 15.9848 50.7645 15.9848C49.4614 15.9848 48.3258 15.7896 47.3576 15.3993C46.3891 15.0089 45.6363 14.4157 45.099 13.6198C44.5614 12.8238 44.2853 11.8175 44.27 10.6008L47.8745 10.6008C47.905 11.1027 48.0393 11.5209 48.2775 11.8555C48.5159 12.1901 48.843 12.4436 49.2586 12.616C49.6795 12.7883 50.1661 12.8745 50.7187 12.8745C51.2255 12.8745 51.6567 12.8061 52.0114 12.6692C52.3715 12.5323 52.6476 12.3422 52.8404 12.0989C53.0331 11.8555 53.1317 11.5767 53.1369 11.2624C53.1317 10.9683 53.0406 10.7174 52.8631 10.5095C52.6856 10.2966 52.4121 10.1141 52.0419 9.962C51.6768 9.80483 51.2106 9.66034 50.6428 9.52851L49.0153 9.14831C47.6668 8.83903 46.6045 8.33969 45.8291 7.65021C45.0533 6.95563 44.6678 6.01774 44.673 4.83651C44.6678 3.87325 44.9264 3.02916 45.4488 2.30418C45.9709 1.57922 46.6934 1.01394 47.6159 0.608366C48.5386 0.202789 49.5906 1.16806e-08 50.7719 1.19589e-08C51.9786 1.22431e-08 53.0253 0.205323 53.9127 0.615968C54.805 1.02155 55.4967 1.59189 55.9886 2.327C56.4805 3.06211 56.7313 3.9138 56.7414 4.88213L53.1369 4.88213ZM58.8556 15.7871L58.8556 0.212928L62.62 0.212928L62.62 6.46388L68.7568 6.46388L68.7568 0.212928L72.5134 0.212928L72.5134 15.7871L68.7568 15.7871L68.7568 9.52851L62.62 9.52851L62.62 15.7871L58.8556 15.7871ZM89.5743 8.00001C89.5743 9.71355 89.2446 11.166 88.5857 12.3574C87.9267 13.5488 87.0344 14.4537 85.9088 15.0723C84.7885 15.6908 83.5312 16 82.137 16C80.7376 16 79.478 15.6882 78.3577 15.0646C77.237 14.4411 76.3473 13.5361 75.6883 12.3498C75.0342 11.1584 74.7071 9.70849 74.7071 8.00001C74.7071 6.28643 75.0342 4.83398 75.6883 3.64259C76.3473 2.45121 77.237 1.54626 78.3577 0.927757C79.478 0.309252 80.7376 1.9017e-08 82.137 1.93466e-08C83.5312 1.9675e-08 84.7885 0.309252 85.9088 0.927757C87.0344 1.54626 87.9267 2.45121 88.5857 3.64259C89.2446 4.83398 89.5743 6.28643 89.5743 8.00001ZM85.7262 8.00001C85.7262 6.98607 85.5818 6.12929 85.293 5.42966C85.0091 4.73005 84.5983 4.20027 84.061 3.84031C83.5286 3.48035 82.8871 3.30038 82.137 3.30038C81.3917 3.30038 80.7506 3.48035 80.2129 3.84031C79.6756 4.20027 79.2626 4.73005 78.9735 5.42966C78.6896 6.12929 78.5475 6.98607 78.5475 8.00001C78.5475 9.01395 78.6896 9.87072 78.9735 10.5704C79.2626 11.27 79.6756 11.7997 80.2129 12.1597C80.7506 12.5197 81.3917 12.6996 82.137 12.6996C82.8871 12.6996 83.5286 12.5197 84.061 12.1597C84.5983 11.7997 85.0091 11.27 85.293 10.5704C85.5818 9.87072 85.7262 9.01395 85.7262 8.00001ZM91.7719 15.7871L91.7719 0.212928L98.2053 0.212928C99.3714 0.212928 100.378 0.441064 101.224 0.897342C102.076 1.34854 102.733 1.97972 103.194 2.79088C103.655 3.59697 103.886 4.53486 103.886 5.60457C103.886 6.67935 103.65 7.61977 103.179 8.42586C102.712 9.22686 102.046 9.84791 101.179 10.289C100.312 10.7301 99.2828 10.9506 98.0914 10.9506L94.1216 10.9506L94.1216 7.98479L97.3919 7.98479C97.9597 7.98479 98.4337 7.88593 98.8137 7.68823C99.1991 7.49051 99.4905 7.21419 99.6884 6.85933C99.886 6.49937 99.985 6.08111 99.985 5.60457C99.985 5.12294 99.886 4.70724 99.6884 4.35741C99.4905 4.00254 99.1991 3.72876 98.8137 3.53613C98.4285 3.34346 97.9545 3.24716 97.3919 3.24716L95.5363 3.24716L95.5363 15.7871L91.7719 15.7871Z" />
</svg>
