<svg width="31" height="29" viewBox="0 0 31 29" fill="none" xmlns="http://www.w3.org/2000/svg">
<path d="M12.7 13.6052H15.3817C17.0232 13.6052 19.0397 13.6615 19.0397 11.4837C19.0397 9.30595 17.03 9.36224 15.3817 9.36224H12.7V13.6052ZM10.1398 7.19008H16.4761C19.5835 7.19008 21.654 8.74885 21.654 11.2643C21.654 13.3295 20.5563 14.5 18.8506 14.8883V14.9446C22.3262 15.558 21.0427 21.1909 21.8398 21.416V21.5286H19.0938C18.4216 20.9152 19.9516 15.7268 15.3817 15.7268H12.7V21.5286H10.1398V7.19008ZM27.5615 14.5C27.5615 8.02855 22.2046 3.23405 15.5034 3.23405C8.80229 3.23405 3.43864 8.02855 3.43864 14.5C3.43864 20.9714 8.79554 25.766 15.5034 25.766C22.2113 25.766 27.5615 21.0221 27.5615 14.5ZM1 14.5C1 6.74551 7.39722 1 15.5034 1C23.6097 1 30 6.74551 30 14.5C30 22.2545 23.6029 28 15.5034 28C7.40397 28 1 22.2545 1 14.5Z" fill="white" stroke="white"/>
</svg>
